<svg width="62" height="90" viewBox="0 0 62 90" fill="none" xmlns="http://www.w3.org/2000/svg">
<g opacity="0.8">
<mask id="path-1-inside-1_185_4728" fill="white">
<path d="M0.0625 55C0.0625 49.4772 4.53965 45 10.0625 45H51.9375C57.4604 45 61.9375 49.4772 61.9375 55V90H0.0625V55Z"/>
</mask>
<path d="M-0.9375 55C-0.9375 48.9249 3.98737 44 10.0625 44H51.9375C58.0126 44 62.9375 48.9249 62.9375 55H60.9375C60.9375 50.0294 56.9081 46 51.9375 46H10.0625C5.09194 46 1.0625 50.0294 1.0625 55H-0.9375ZM61.9375 90H0.0625H61.9375ZM-0.9375 90V55C-0.9375 48.9249 3.98737 44 10.0625 44V46C5.09194 46 1.0625 50.0294 1.0625 55V90H-0.9375ZM51.9375 44C58.0126 44 62.9375 48.9249 62.9375 55V90H60.9375V55C60.9375 50.0294 56.9081 46 51.9375 46V44Z" fill="black" fill-opacity="0.8" mask="url(#path-1-inside-1_185_4728)"/>
</g>
<circle opacity="0.8" cx="31" cy="19.6875" r="19.1875" stroke="black" stroke-opacity="0.8"/>
</svg>
