<svg width="35" height="35" viewBox="0 0 35 35" fill="none" xmlns="http://www.w3.org/2000/svg">
<path opacity="0.8" d="M19.5396 6.57284C17.5295 8.06856 17.198 8.89462 16.0205 10.0628C16.0205 10.0628 13.5092 6.57284 10.9965 5.5757C8.48382 4.57856 7.47875 5.07713 5.97111 5.57569C4.46348 6.07426 2.4534 8.06856 1.44696 10.5614C0.440528 13.0543 1.44828 16.0457 1.44828 16.0457C1.44828 16.0457 1.65633 16.8553 2.45204 18.04C3.24774 19.2247 4.46218 20.5329 4.46218 20.5329L16.0205 32L25.5701 22.5272L29.0878 19.0371C30.5954 17.5414 31.6005 13.0543 30.5954 10.5614C29.5904 8.06856 28.4525 7.22145 27.5802 6.57284C25.5687 5.07713 24.565 5.07713 23.5599 5.07713H23.5599C22.5548 5.07713 21.5498 5.07713 19.5396 6.57284Z" stroke="black" stroke-opacity="0.8"/>
<line x1="0.646447" y1="34.6464" x2="34.6464" y2="0.646448" stroke="black"/>
</svg>
