<svg width="26" height="23" viewBox="0 0 26 23" fill="none" xmlns="http://www.w3.org/2000/svg">
<path opacity="0.8" d="M15.8317 2.22332C14.2236 3.38666 13.9584 4.02915 13.0164 4.93777C13.0164 4.93777 11.0073 2.22332 8.9972 1.44777C6.98706 0.672215 6.183 1.05999 4.97689 1.44776C3.77078 1.83554 2.16272 3.38666 1.35757 5.32555C0.552423 7.26444 1.35863 9.59111 1.35863 9.59111C1.35863 9.59111 1.52506 10.2208 2.16163 11.1422C2.79819 12.0637 3.76975 13.0811 3.76975 13.0811L13.0164 22L20.656 14.6322L23.4703 11.9178C24.6763 10.7544 25.4804 7.26444 24.6763 5.32555C23.8723 3.38666 22.962 2.72779 22.2642 2.22332C20.655 1.05998 19.852 1.05999 19.0479 1.05999C18.2439 1.05999 17.4398 1.05999 15.8317 2.22332Z" stroke="black" stroke-opacity="0.8"/>
</svg>
