<svg width="32" height="29" viewBox="0 0 32 29" fill="none" xmlns="http://www.w3.org/2000/svg">
<path opacity="0.8" d="M19.446 2.57735C17.446 4.07735 17.1163 4.90577 15.9447 6.07734C15.9447 6.07734 13.446 2.57734 10.946 1.57735C8.44604 0.577355 7.44604 1.07735 5.94602 1.57734C4.446 2.07734 2.44606 4.07734 1.44471 6.57734C0.443352 9.07734 1.44602 12.0773 1.44602 12.0773C1.44602 12.0773 1.65302 12.8892 2.44471 14.0773C3.23639 15.2655 4.44471 16.5773 4.44471 16.5773L15.9447 28.0773L25.446 18.5773L28.946 15.0773C30.446 13.5773 31.446 9.07735 30.446 6.57735C29.446 4.07735 28.3139 3.22781 27.446 2.57735C25.4447 1.07735 24.4461 1.07735 23.4461 1.07735H23.446C22.446 1.07735 21.446 1.07735 19.446 2.57735Z" stroke="white"/>
</svg>
