<svg width="71" height="65" viewBox="0 0 71 65" fill="none" xmlns="http://www.w3.org/2000/svg">
<path opacity="0.8" d="M43.6411 4.66997C39.0178 8.15997 38.2555 10.0874 35.5472 12.8133C35.5472 12.8133 29.7711 4.66995 23.992 2.3433C18.2128 0.0166444 15.9011 1.17996 12.4336 2.34328C8.966 3.50661 4.34281 8.15997 2.02801 13.9766C-0.286785 19.7933 2.03105 26.7733 2.03105 26.7733C2.03105 26.7733 2.50956 28.6623 4.33968 31.4267C6.1698 34.191 8.96302 37.2434 8.96302 37.2434L35.5472 64L57.5111 41.8967L65.602 33.7533C69.0695 30.2633 71.3811 19.7933 69.0695 13.9766C66.7578 8.15997 64.1407 6.18338 62.1345 4.66997C57.5081 1.17997 55.1995 1.17997 52.8878 1.17997H52.8878C50.5761 1.17997 48.2645 1.17996 43.6411 4.66997Z" stroke="black"/>
</svg>
