<svg width="24" height="21" viewBox="0 0 24 21" fill="none" xmlns="http://www.w3.org/2000/svg">
<path opacity="0.8" d="M14.8317 1.22332C13.2236 2.38666 12.9584 3.02915 12.0164 3.93777C12.0164 3.93777 10.0073 1.22332 7.9972 0.447766C5.98706 -0.327785 5.183 0.059987 3.97689 0.447762C2.77078 0.835536 1.16272 2.38666 0.35757 4.32555C-0.447577 6.26444 0.358625 8.59111 0.358625 8.59111C0.358625 8.59111 0.525065 9.22077 1.16163 10.1422C1.79819 11.0637 2.76975 12.0811 2.76975 12.0811L12.0164 21L19.656 13.6322L22.4703 10.9178C23.6763 9.75445 24.4804 6.26444 23.6763 4.32555C22.8723 2.38666 21.962 1.72779 21.2642 1.22332C19.655 0.0599836 18.852 0.0599896 18.0479 0.0599895C17.2439 0.0599895 16.4398 0.0599872 14.8317 1.22332Z" fill="#EB5353"/>
</svg>
